<?xml version="1.0" encoding="UTF-8"?>
<svg id="Layer_2" data-name="Layer 2" xmlns="http://www.w3.org/2000/svg" viewBox="0 0 625.29 589.01">
  <defs>
    <style>
      .cls-1 {
        fill: #e6e5e1;
      }
    </style>
  </defs>
  <g id="Layer_1-2" data-name="Layer 1">
    <g>
      <path class="cls-1" d="M48.03,57.59c1.03.41,1.73,1.02,2.08,2.08,2.32,4.12-.52,4.47.2,6.48.47,1.31,1.31,1.25,1.88,1.84.4,1.02,1.02,1.74,2.08,2.08,8.25,7.68,13.87,12.85,25.15,16.18,18.94,5.6,41.68,8.54,62.25,12.26l4.16.69c18.89,3.84,32.46,8.82,50.64,15.95,1.26.19,2.45.63,3.47,1.39,2.8,1,4.05,2.57,4.29,2.67.67.27,1.6-.63,2.26-.51.83.16.78,1.84,1.56,2.02.93.22,2.16-.23,3.2-.02.43.09,5.52,3.41,7.42,4.15,1.24.21,2.47.6,3.47,1.39,3.89,1.33,5.46,2.36,8.49,3.67,9.71,4.21,18.95,4.65,28.97,7.43,1.49.53,2.88.53,4.16,0,9.22-.02,16.5.57,25.92-.78,23.21-3.32,57.23-17.3,79.72-12.23.96.22,6.05,2.89,7.24,3.26,6.02,1.86,6.8,1.9,11.97,5.59,1.01,1.1,2.1,2.13,3.47,2.77,2.86,2.81,7.37,7.32,9.71,10.4.34,1.35.99,2.58,2.08,3.47,5.64,8.24,9.79,17.6,15.95,24.97.36,1.06,1.04,1.69,2.08,2.08,2.51,2.85,4.11,4.37,6.94,6.94.36,1.04,1.05,1.69,2.08,2.08,21.74,17.45,43.96,11.04,67.28,19.42,1.03.7,2.19,1.16,3.47,1.39,1.32.7,2.7,1.16,4.16,1.39,7.14,3.28,15.51,10.02,20.81,15.95.38,1.32,1.08,2.25,2.08,2.77,2.13,3.11,3.6,6.69,5.53,9.89.59.97,1.82,1.1,2.79,3.29-.26,1.13-.03,2.29.69,3.47,1.2,2.94,1.67,6.38,2.82,9.17.26.64,1.51.71,1.77,1.88.54,2.42.11,1.77.95,4.21-.39,1.43.11,2.85.69,4.16.45,2.34.92,4.62,1.39,6.94-.03,1.23.2,2.38.69,3.47.43,2.65,1.41,3.61,1.42,3.86.02.69-.9,1.75-.78,2.66.02.18.51.72.99,2.74s2.54,5.38,2.54,5.71c0,.73-.81,1.68-.75,2.62.03.39,1.16.37,1.55,1.38.62,1.64.38,3.68.9,5.33,1.21,3.92,2.96,6.98,3.84,10.38l1.39,3.47c1.72,2.85,2.01,4.57,3.47,7.63l1.39,2.77c.4,1.29,1.09,2.22,2.08,2.77,2.9,5.09,5.01,8.88,8.32,13.87l2.08,2.77c1.7,3.41,3.7,5.98,5.55,9.02l3.47,7.63c3.53,8.55,5.94,14.86,7.63,24.28l.69,5.55c.45,2.42.6,3.57.69,6.24-.51,4.37-.5,8.81,0,13.18-.1,2.44-.31,3.44-.69,5.55-.54,1.94-.54,3.79,0,5.55,0,7.89.6,15.7.69,23.58l.69,4.16c0,.69,0,1.39,0,2.08l.69,4.86c.49,9.63,4.52,21.85,6.94,31.21-.03,1.26.21,2.42.69,3.47,1.06,4.04,1.77,8.69,3.53,12.64.25.56,1.34.55,1.34.95,0,.74-.8,1.7-.75,2.63.02.32,1.25.41,1.8,1.77.88,2.18.49,4.45,1.05,6.54,2.07,7.7,4.76,14.56,6.95,22.13.17.6,1.36.52,1.37.91.01.72-.82,1.71-.76,2.64.03.46,1.21.38,1.64,1.28.99,2.07.57,4.45,1.14,6.42,1.87,6.41,4.3,11.87,5.59,17.71.38,1.27.15,1.73-.69,1.39-5.06-3.62-8.51-7.76-13.18-11.79-.69-1.12-1.61-2.04-2.77-2.77-8.01-4.82-15.15-10.33-23.58-14.57-1.24-1.26-2.86-2.19-4.86-2.77-13.79-4.52-24.95-7.48-39.54-9.02l-7.63-.69c-5.75.13-9.47.31-15.26,0l-8.32.69c-.92,0-1.85,0-2.77,0-3.2-.6-6.51-.58-9.71,0-.23,0-.46,0-.69,0l-7.63-.69c-35.89-.13-64.09-27.42-95.72-41.62-.7-.85-1.72-1.22-2.77-1.39-18.85-8.09-35.84-11.41-55.49-15.95-1.26-.51-2.41-.51-3.47,0-3.82-.01-7.38-.69-11.1-1.39-1.5-.52-2.89-.52-4.16,0h-1.39c-2.48-.55-5.02-.55-7.63,0-.19.04-.6.71-1.72.77-1.6.09-1.97-.67-2.44-.77-3.69-.49-7.41-.32-11.1,0-.08.01-.55.55-1.39.69-1.55-.51-3.17-.51-4.86,0-.76.15-1.29.53-2.77.69-1.11-.49-2.36-.56-3.47,0-.69.02-1.39-.01-2.08,0l-4.16.69c-2.71.1-5.1.6-7.63.69-2.5-.56-5.14-.6-7.63,0-6.02.08-12.27.36-18.03-.69-1.48-.51-2.86-.51-4.16,0-31.97-2.74-63.55-16.45-94.33-24.63-7.57-2.01-15.5-3.08-22.89-5.2-1.25-.5-2.41-.5-3.47,0-2.33-.08-4.61-.49-6.94-.69h-8.32c-2.12.2-4.09.59-6.24.69-1.06-.5-2.22-.5-3.47,0-8.59,2.5-16.81,3.97-24.12,8.98-.67.46-2.17.22-2.76.91-1.09,1.29-1.97,2.9-3.64,4.68l-2.08,3.47c-.43.46-.93.92-1.39,1.39l-2.77,3.47c-1.3,1.08-3.38,1.08-6.24,0-.25-.11-.46-.58-.69-.69-.41-.31-.41-1.01,0-2.08.84-1.37,1.83-2.88,2.77-4.16,1-.43,1.71-1.04,2.08-2.08.11-.15-.11-.55,0-.69,1.12-.69,2.04-1.62,2.77-2.77,2-3.24,3.42-2.81,4.01-3.62.53-.73.43-3.81,1.24-5.34.61-1.16,2.16-1.78,2.69-2.86,4.04-8.28,5.84-48.49,5.93-59.62l.69-6.94c.03-5.31,0-10.65,0-15.95l.69-11.79c.03-45.86-.07-92.08-.69-138.03.56-1.32.58-2.84,0-4.16-.13-9.02-.56-18.09-.69-27.05.56-4.36.61-8.82,0-13.18-.05-4.84.02-9.72,0-14.57l-.69-7.63c-.12-15.11-1.49-30.18-2.22-45.29-3.76-4.01-8.08-6.55-11.65-10.89l-2.77-2.77c-2.06-1.28-4.04-2.66-6.15-3.91-1.12-5.94,1.66-2.52,4.07-5.1-1.75-.39-4.04-.24-5.7-.74-.5-.15-2.79-1.55-4.71-2.04-1.25-.5-2.41-.5-3.47,0-1.61-.09-2.19-.61-2.77-.69-3.22-.32-6.49-.4-9.71,0-.15.03-.41.61-.69.69-1.16-.61-2.26-.34-3.47,0-2.83.93-3.99,2.26-7.19.6-4.15-2.16-3.11-7.57,1.64-8.23,1.76-.71,3.77-.58,5.55,0,7.84-.26,17.6-.75,25.32-.3,2.87.16,3.54.27,5.9,1.69ZM74.38,102.67c1.94,9.9,9.34,26.24,13.18,36.07-.03,1.31.2,2.72,1.39,3.47.44,1.15.96,2.38,1.39,3.47.53,1.35,1.24,2.4,1.39,2.77,7.29,18.22,13.41,35.21,21.38,53.18,3.76,8.48,8.44,16.57,11.91,25.19.53,1.31.11,3.22,2.08,2.77.61,1.77.58,2.28,1.39,4.16.3.69.25,1.53.77,2.35.41.65,1.1.84,1.31,1.11.63,1.54.91,1.8,1.39,2.77,3.15,6.41,6.33,11.58,8.88,17.83.83,2.04,2.9,3.07,3.22,3.68,1.31,2.47,2.61,5.69,3.85,8.31.73,1.54,1.03,3.28,2.77,4.16,3.55,7.43,9.52,15.55,13.87,22.89.52.88.36,2.35,2.08,2.77,3.09,5.57,8.14,12.14,11.79,17.34,1.15,1.64,1.98,1.95,2.08,2.08,3.69,5.08,9.94,12.46,12.49,17.34,1.32,2.54,1.91,1.86,2.08,2.08,1.45,1.92,4.84,6.24,5.55,7.63,1.35,2.65,1.65,1.61,2.08,2.08,1.63,1.78,3.15,4.28,4.86,6.24-.09,1.75,1.38,2.02,2.08,2.77s1.87,1.85,2.08,2.08c1,1.14,1.8,2.3,2.77,3.47.64.77.91,1.5,2.08,2.77.51.55.84.88,1.39,1.39-.13,1.75,1.32,1.99,2.08,2.77,1.95,2,3.73,4.14,5.55,6.24.82.95,1.57,2.13,2.77,3.47,2.13,2.37,3.94,4.65,6.24,6.94.08,2.12,2.18,2.94,3.47,4.16.69.66,1.33,1.38,2.08,2.08-.05,1.71,1.14,1.98,2.08,2.77,1.54,1.31,3.71,3.57,5.55,5.55.09,1.67,1.46,2.69,2.77,3.47,6.27,6.66,13.18,12.42,19.42,18.73.79.8,1.03,2.2,2.77,2.08,2.61,2.75,4.15,3.44,6.94,5.55.5,1.24,1.44,1.94,2.77,2.08,2.42,1.79,7.63,6.22,9.92,7.4,1.03.53,2.22-.08,3.1.4.19.11,2.59,2.82,3.14,3.07,2.48,1.17,1.6-.07,4.65,2.3.92.72,2.37,2.39,3.47.69,1.56.67,2.73,2.47,3.31,2.73,1.79.81,5.16,1.22,7.5,2.03,11.17,3.88,21.65,6.78,32.36,9.29,13.33,3.12,24.88,8.15,37.29,13,1.02.4,2.44.96,3.47,1.39,4.35,1.82,8.25,3.51,12.49,5.55-.44,1.96,1.45,1.56,2.77,2.08,4.46,1.75,5.59,3.45,10.4,4.86.47.56.68,1.9,1.37,2.44,1.81,1.41,2.49-1.32-1.37-2.44-4.08-4.9-8.31-8.56-12.49-13.18-3-3.32-3.28-3.91-6.94-6.94-1.38-1.14-2.78-2.31-4.16-3.47-.03-2.59-2.28-2.65-3.47-3.47-.67-.46-1.25-.79-2.08-1.39-.08-2.57-2.16-2.63-3.47-3.47-2.19-1.4-6.62-4.77-8.32-6.94-.97-1.24.33-.69-2.08-2.08-2.25-1.3-1.87-1.39-3.47-2.77-1.18-1.03-1.99-1.44-2.77-2.08-.88-.72-1.87-1.35-2.77-2.08.02-2.39-1.68-2.12-2.77-2.77-1.49-.89-1.31-.24-2.77-2.08-1.29-1.62-.83-.97-2.08-2.08-.74-.66-1.02-2.26-2.77-2.08-.22-.24-.49-.44-.69-.69-.97-1.18.31-.7-2.08-2.08-3.55-2.04-2.24-1.83-4.16-4.16-3.62-4.38-6.97-6.96-11.1-10.4-2.54-2.12-2.49-2.45-4.16-4.86-1-1.44-1.44-4.01-4.16-4.16-.6-.81-1-1.56-1.39-2.08-1.46-1.99-1.76-2.33-3.47-4.16-2.35-2.53-3.81-3.94-5.55-6.94-1.44-2.48-1.09-1.22-2.08-2.08-.6-.52-.49-1.09-.69-1.39-.9-1.32-1.06-1.54-2.08-2.77-19.83-23.98-33.39-52.87-51.35-78.01-1.85-2.59-2.12-1.63-3.45-5.22-1.04-2.79-1.36-1.45-2.08-2.08-.6-.53-.48-1.06-.69-1.39-1.41-2.19-.81-1.03-2.08-2.08-2.32-1.92-3.72-3.93-5.55-6.24-.18-.23-.1-1.18-.64-1.78-.81-.9-1.86-.77-2.13-.99-4.11-3.36-11.31-9.87-14.57-13.87-.99-1.22.29-.7-2.08-2.08s-5.07-3.17-6.94-5.55c-.99-1.25.3-.69-2.08-2.08-1.52-.89-1.32-.24-2.77-2.08-1.13-1.43-.03-.68-2.08-2.08-.73-.5-1.3-.6-2.08-1.39-.69-.7.37-.61-2.08-2.08-.35-.21-.82-.34-1.39-.69.02-2.39-1.67-2.12-2.77-2.77-1.69-1.01-1.43-.93-2.77-2.08.06-2.4-1.78-2.13-2.77-2.77-.84-.54-1.2-.75-2.08-1.39.04-2.4-1.74-2.13-2.77-2.77-1.88-1.18-1.76-.67-3.47-2.77-1.23-1.52-1.31-1.3-2.08-2.08-.44-.45-.93-.93-1.39-1.39-2.4-2.39-2.53-2.93-5.55-4.86-1.38-.88-2.98-1.76-4.38-2.67-7.01,4.12-14.53,7.21-21.81,10.79-1.46.72-2.72,1.14-3.64,1.59l-.69-.69c4.75-2.67,9.08-6.03,13.36-8.52,6.46-3.76,13.11-7.27,19.64-10.91,3.85-.55,6.35,4.2,8.96,6.26,1.18.93,3.33,1.88,4.52,2.76-.1,2.41,1.86,2.15,2.77,2.77,4.62,3.17,9.84,6.79,13.87,10.4.44.39-.55.72,2.08,2.08,1.12.58,2.96,1.64,4.08,2.51s1.51,3.49,3.55,2l-15.1-42.33c8.26-5.13,16.87-11.19,25.5-15.58,1.04-.53,2.26-.37,2.77-2.08,1.12-.69,5.58-3.3,5.55-4.16-.04-1.08-2.9-1.11-3.47,0-5.27-.7-10.87-2.03-15.95-2.77-.87-.13-2.22-.5-3.47-.69-.65-.1-1.42.09-2.08,0s-2.08-.52-3.47-.69c-.45-.06-.94.05-1.39,0-.46-1.09-3.01-1.09-3.47,0-1.69-.19-3.88-.98-5.55-1.39-1.41-.34-1.98-.47-3.47-.69-.46-.49-.58-2.18-1.39-2.77-4.26-13.18-9.67-26.1-13.19-39.53-2.42-.45-.67,1.23-1.15,2.63-1.16,3.36-3.96,7.19-4.67,9.98-1.37,5.35-5.03,17.97-8.05,23.46-.4.73-1.59,1.37-1.39,2.77-1.27.54-2.14-.52-2.77-.69-1.55-.43-1.91-.46-3.47-.69-2.11-.31-4.63-.38-6.94-.69-.87-.12-2.14-.51-3.47-.69-3.41-.48-6.21-.78-9.71-1.39-2.09-.36-3.3-.49-5.55-.69-1.65-.15-3.39.08-5.13-.07-.56-.05-8.27-2.56-5.97.07-3.51-4.71-7.08-8.75-10.4-13.87-.96-1.48-.88-1.41-2.08-2.77-2.28-2.59-3.57-4.94-5.55-7.63-.65-.88-1.44-1.91-2.08-2.77-3.12-4.21-6.14-8.2-9.02-12.48-1.22-1.82-1.59-2.03-2.77-3.47-2.88-3.51-5.15-6.72-7.63-10.4-1.23-1.83-1.56-2.01-2.77-3.47-1.66-2.01-2.17-2.58-3.47-4.86-1.43-2.51-1.64-1.6-2.08-2.08-2.52-2.76-3.99-6.59-6.94-9.02-1.44.73-.35,2.8.69,3.47ZM225.6,142.21c-.28,2.05,1.49,1.64,2.08,2.08,2.08,1.53,4.51,3.02,6.24,4.86.67.71-.6.73,2.08,2.08,3.5,1.76,11,8.82,15.06,12,4.85,3.81,9.05,8.15,14.08,11.58.65,2.01,2.33,2.07,3.47,2.77,4.09,2.54,9.16,6.53,13.18,9.71.3.23-.61.83,2.08,2.08.2.09.53-.1.69,0-.16,2.38,1.97,2.15,2.77,2.77,1.07.82,2.46,1.91,3.47,2.77.36.31-.33.66,2.08,2.08,1.73,1.02,1.43.93,2.77,2.08-.1,2.41,1.87,2.15,2.77,2.77,2.93,2.02,5.3,3.93,7.63,6.94.25.32.09,1.38.99,2.14.66.56,1.49.44,1.78.64,3.74,2.46,7.73,7.47,11.1,11.1.09,1.67,1.46,2.69,2.77,3.47,2.17,2.34,3.86,4.09,6.24,6.24,0,1.95,1.68,2.45,2.77,3.47.46.42.91.93,1.39,1.39.34,2.54,3.28,3.91,4.86,5.55,1.14,1.19,2.39,2.24,3.47,3.47.78.89,1.94,1.92,2.08,2.08.29.34.4,1.02.69,1.39,1.05,1.34,1.79,3.98,4.16,4.86,2.23,2.66,5.16,5.89,7.63,8.32-.08,1.75,1.38,2.01,2.08,2.77,1.77,1.92,5.43,5.52,6.24,6.94,1.33,2.31.62,1,2.08,2.08,2.55,1.89,4.75,5.68,6.94,8.32,1.25,1.52.96,1.06,2.08,2.08,2.28,2.09,3.34,4.08,5.55,6.24.07,1.68,1.05,1.97,2.08,2.77,1.69,1.32,1.2-.17,2.77,2.77.66,1.24.43,2.75,2.77,2.77,1.32,1.47,1.61,1.72,2.77,3.47,1.72,2.59,1.03,1.33,2.77,2.77,2.32,1.92,2.03,1.94,3.47,4.16.83,1.29.89,3.4,3.47,3.47.75,1.02,1.21,1.74,2.08,2.77,1.17,1.39,1.19,1.2,2.08,2.08,3.33,3.28,4.92,5.25,7.63,9.02.14.2-.03.96.35,1.4.64.75,1.54.53,1.73.68,2.06,1.67,1.61,1.44,2.77,3.47,1.39,2.41.84,1.11,2.08,2.08,1.43,1.12.84,1.1,1.39,2.08.83,1.5.95,3.31,3.47,3.47,1.47,1.97,3.18,4.37,4.16,6.24,1.34,2.57.99,1.2,2.08,2.08,1.17.95,4.85,7.23,6.23,9.17,3.11,4.37,6.67,8.97,9.72,13.72-.18,1.65.57,2.83,2.08,3.47,14.61,23.18,25.23,47.91,42,69.34.96,1.23,2.6,2.58,3.78,4.18,1.72,2.34,1.25,1.4,2.77,2.77,1,1.38,1.43,4.04,4.16,4.16.69.65,1.38,1.41,2.08,2.08.07,2.58,2.18,2.64,3.47,3.47,3.49,2.25,7.76,6.14,11.79,9.02.14.1,0,.77,2.08,2.08,19.46,12.28,41.11,22.26,58.96,36.76-.02,2.59,2.36,2.65,3.47,3.47,1.43,1.06,2.1,1.47,3.47,2.77,1.01.97,1.47,2.78,3.47,2.77,3.58,3.52,8.89,7.53,11.1,11.79.69,1.34.07,2.53,2.77,2.07.15-.66-.68-.64-.69-.69-.68-2.18-1.05-4.06-2.08-6.24l.68-.34c-.47-1.17-1.47-2.15-2.06-3.13-2.96-4.83-6.24-11.41-8.32-16.65,1.76-1.13-.09-2.54-.69-3.47-3.07-4.7-5.48-9.03-6.94-14.57-.11-.4,1.06-2.58-1.39-2.08-7.6-16.6-15.77-29.44-27.05-43.7-1.31-1.66-.77-.95-2.08-2.08-.98-.84-1.24-1.1-2.08-2.08-.14-.16.02-.97-.35-1.4-.64-.74-1.57-.54-1.73-.68-1.13-.98-1.93-2.03-2.77-2.77-1.35-1.19-1.42-1.16-2.77-2.08-.73-.5-1.3-.59-2.08-1.39-.73-.74.2-.6-2.08-2.08-26.06-16.9-47.25-22.82-67.28-48.55-.61-.79-1.46-1.95-2.08-2.77-6.5-8.67-10.75-15.5-15.95-24.97-.42-.77-.97-1.99-1.39-2.77-1.72-3.24-4.09-6.3-5.55-9.71,1.84-1.4-.66-3.62-1.39-4.86-3.18-5.41-5.54-10.94-8.32-16.65-.45-.92-.53-1.88-1.39-3.47-.44-.81-1.54-1.66-2.08-2.77l.61-.46c-.21-2.19-1.57-5.19-3.38-6.48-2.75-5.78-6.6-12.3-9.02-18.03l.68-.38c.59-1.64-1.11-1.98-1.37-2.39-2.23-3.55-4.13-7.13-5.55-11.1-.46-1.27.19-3.93-2.08-3.47-10.84-20.47-21.71-37.31-36.07-55.49-1.08-1.37-1.18-1.84-2.77-3.47-.46-.47-.92-.9-1.39-1.39,0-2.73-3.03-3.23-4.16-4.16-3.4-3.67-4.04-4.88-8.32-8.32s-9.2-7.45-13.87-10.4c.45-2-1.5-1.53-2.77-2.08-22.06-9.52-34.78-11.43-57.58-16.98-16.77-4.08-28.96-8.9-44.38-16.31-1.64-.79-3.34-2.69-5.55-2.77-4.71-.8-9.96-6.01-14.21-6.95-.38-.08-1.15-.17-1.04.35,1.09.92,2.32,1.6,3.46,2.43ZM416.35,185.9c.52,1.33.13,3.21,2.08,2.77,4.73,8.01,10.16,19.72,14.57,28.44-1.87,1.68,1.34,4.7,2.08,6.24.45.93.97,1.88,1.39,2.77,1.9,4.03,3.2,7.92,5.55,11.79-.28,1.76.62,2.36,1.39,3.47,2.44,3.54,1.54,3.03,2.77,6.24.49,1.28,1.06,1.99,1.39,2.77,5.74,13.6,15.74,29.68,25.08,41.85,1.12,1.45,1.54,1.16,2.66,3.24,1.3,2.39.68,1.05,2.08,2.08,2.23,1.64,1.65,1.76,2.77,3.47.28.43.18,1.24.98,2.13.99,1.11,1.96.96,2.49,1.34,1.8,1.3,2.56,1.98,4.16,3.47-.02,2.39,1.68,2.12,2.77,2.77,1.48.89,1.32.24,2.77,2.08.89,1.13-.49.76,2.08,2.08,3.43,1.76,7.66,6.74,11.13,8.63.91.5,2.32.19,2.66.52.31.29-.11,1.59.16,1.85.4.38,1.8-.17,2.55.24.32.18.63,1.59,1.56,2.25,3.44,2.47,7.92,4.76,11.08,7.32.18.15.94,1.15,2.08,2.08.27.22.48.53.69.69,1.18.92.98,1.07,2.77,2.08.96.54.95-.05,2.08,1.39.87,1.11-.51.77,2.08,2.08,2.17,1.1,10.41,9.04,11.79,11.1,1.01,1.51,1.45,3.98,4.16,4.16.1.16-.1.51,0,.69.52.99.35,2.27,2.08,2.77,4.16,6.39,8.36,11.65,12.18,18.69,1.05,1.93,2.21,5.86,3.03,7.2,2.5,4.1,7.7,16.1,9.05,21.75.31,1.3-.15,2.99.02,4.38.85,1.13,1.26,0,1.39-1.02.24-1.93.14-5.28,0-7.3-.11-1.6-.61-2.69-.69-3.47-2.32-22.5-7.72-44.05-21.5-62.42-1.24-1.66-1.79-1.73-2.08-2.08-1.54-1.82-2.28-3.11-3.47-4.86s-2.05-4.56-4.86-4.86c-.42-.45-.86-.77-1.39-1.39-1.18-1.36-1-1.08-2.08-2.08-18.56-17.16-24.8-35.24-35.95-56.65-3.78-7.25-8.56-13.96-12.61-21.03-1.39-2.42-.84-1.11-2.08-2.08-1.44-1.13-.85-1.15-1.39-2.08-1.64-2.85-1.03-1.4-2.77-2.77-1.32-1.04-1.86-1.96-2.77-2.77-.22-2.72-2.61-3.13-4.16-4.16-.31-.2-.87-.09-1.39-.69-1.13-1.32-.27-.72-2.08-2.08-.15-.11-.58.12-.69,0-.69-.74.58-.7-2.08-2.08-9.05-4.7-18.68-9.44-27.05-15.26-.14-.09.24-.76-2.08-2.08s-2.87-1.62-4.86-3.47c-.46-.42-1.53-1.54-2.08-2.08-.43-.42-1.05-1.09-1.39-1.39-.73-.64-1.02-2.21-2.77-2.08-4.5-4.14-9.46-8.65-12.49-13.87-1.46-2.51-1.44-1.44-2.08-2.08-.76-.77-.9-1.43-1.39-2.08l.68-.34c-.57-.44-1.29-1.75-2.07-1.74-2.43.05-.19,2.98,0,3.47Z"/>
      <path class="cls-1" d="M41.09,68.68c.71,3.42.48,6.97,0,10.4,1.95,40.18-.61,80.99,0,121.38l.69,4.16c1.15,69.81-1.04,139.89-.73,209.85.06,13.16,1.89,27.04.78,40.26-.16,1.91-.31,1.37-1.44,2.36-.69.88-1.73,1.14-2.77,1.39-5.44,1.46-10.54.55-15.95,0-1.09-.47-2.24-.7-3.47-.69-1.03-.17-4.62.24-4.86,0,.5-3.21-.65-6.25-.72-9.33s.71-5.72.72-8.01c-.58-1.62-.58-3.26,0-4.86-.02-6.29-.06-12.47,0-18.73-.58-3.22-.57-6.49,0-9.71-.04-4.08-.04-8.43,0-12.48-.58-3.45-.57-6.95,0-10.4-.04-3.6-.02-7.53,0-11.1-.57-4.16-.57-8.34,0-12.48-.01-2.66-.67-6.44-.69-9.71.58-4.13.6-8.36,0-12.48,0-3.69,0-7.41,0-11.1l.69-11.1c-.19-4.52-.05-7.52,0-11.79-.57-3.68-.57-7.41,0-11.1-.03-2.97-.67-6.88-.69-10.4.58-4.13.59-8.36,0-12.48,0-3.23-.01-6.48,0-9.71.59-4.36.56-8.81,0-13.18.06-3.55.56-7.1.69-10.4l-.69-11.79c.02-4,.53-7.98.69-11.79l-.69-11.1c0-3.46,0-6.94,0-10.4.59-3.9.59-7.9,0-11.79,0-3.23,0-6.48,0-9.71.59-4.6.59-9.28,0-13.87,0-3,0-6.02,0-9.02l.69-12.48c-.13-3.98-.05-7.83,0-11.79-.57-3.45-.57-6.95,0-10.4-.04-4.06-.04-8.4,0-12.48-.58-3.45-.57-6.95,0-10.4-.02-2.97-.71-6.83-.69-10.4l.69-6.94c.04-2.46-1.33-5.88,1.05-6.24,6.37-.96,17.14-1.05,23.42.16,1,.19,2.69,1.07,3.28,1.92Z"/>
      <path class="cls-1" d="M13.34,527.16c.13-15.44-.24-30.73.05-46.14.03-1.64-.84-3.18-.79-4.83.19-5.94,4.99-3.19,8.68-3.1,3.4.08,17.49-1.41,18.96-.57,2.89,1.65.78,18.34.81,22.42.19,26.03.9,52.25.76,78.38-.03,4.89-1.98,10.66-.03,15.57-2.77.03-5.56-.01-8.32,0-1.32-.56-2.84-.58-4.16,0-4.03.03-8.52.26-12.49,0l-3.47-.69c-1.94-2.24-.05-9.73,0-12.48-.57-3.45-.57-6.96,0-10.4-.05-6.1.07-12.48,0-18.73-.58-1.34-.58-2.82,0-4.16-.03-3.61-.04-7.51,0-11.1-.57-1.38-.57-2.8,0-4.16Z"/>
      <path class="cls-1" d="M9.88,6.95c10.77-8.99,24.78-9.55,35.38,0l4.16,4.86c3.18,4.56,3.7,7.41,4.86,13.18v4.16c-.25,2.73-.84,4.87-.8,6.59.01.47-1.09.24-1.24.78-1.47,5.62-2.48,6.75-6.98,10.66-1.02.39-1.63,1.12-2.08,2.08-4.47,2.94-8.46,4.43-13.87,4.86-1.57-.53-3.28-.49-4.86,0-1.17-.16-1.5-.54-2.08-.69l-4.86-1.39c-3.61-1.51-4.66-2.47-7.63-4.86l-2.08-2.08c-.09-.09-.88.17-1.19-.18C3.62,41.61.67,35.69.16,31.23c.49-2.51.48-5.12,0-7.63.69-6.13,3.73-10.31,7.63-14.57l2.08-2.08Z"/>
      <path class="cls-1" d="M14.73,461.26c8.16.2,13.62.41,21.82-.03,1.24-.07,2.66,1.2,3.84.41.66-.44.75-1.97,1.85-2.35,1.83-.64,7.21.26,8.2,1.93.14.23.28,5.19.14,5.43-1.76,3.08-5.79,2.79-8.8,2.93-2.98-.54-6.04-.6-9.02,0-4.02.05-8.79.1-13.18,0-2.25-.63-4.67-.55-6.94,0-1.44-.06-1.56.56-3.47-.69-1.05-.93-1.82-2.06-2.08-3.47,0-2.69,1.19-3.34,3.47-4.16,1.49-.54,2.87-.54,4.16,0Z"/>
      <path class="cls-1" d="M12.65,170.64c0-4.61,0-9.26,0-13.87,1.16,3.97,1.16,9.84,0,13.87Z"/>
      <path class="cls-1" d="M66.75,169.95c-.06-4.38.05-8.8,0-13.18,1.16,3.72,1.17,9.4,0,13.18Z"/>
      <path class="cls-1" d="M592.54,407.16c-1.16-3.72-1.17-9.4,0-13.18.15,4.22.18,8.97,0,13.18Z"/>
      <path class="cls-1" d="M12.65,260.81c.02-4.38-.08-8.8,0-13.18,1.16,3.72,1.17,9.4,0,13.18Z"/>
      <path class="cls-1" d="M12.65,147.76c0-3.97-.59-8.79.69-12.48.13,3.88.49,8.86-.69,12.48Z"/>
      <path class="cls-1" d="M13.34,373.18c-1.17-3.52-1.16-9.01,0-12.48.02,4.15.02,8.33,0,12.48Z"/>
      <path class="cls-1" d="M12.65,283.01c-.03-4.15,0-8.33,0-12.48,1.16,3.47,1.17,8.96,0,12.48Z"/>
      <path class="cls-1" d="M12.65,350.98c-.03-4.15.01-8.33,0-12.48,1.16,3.47,1.17,8.96,0,12.48Z"/>
      <path class="cls-1" d="M67.45,350.98c0-3.76-.59-8.45.69-11.79,0,3.75.59,8.45-.69,11.79Z"/>
      <path class="cls-1" d="M12.65,192.15c0-3.92,0-7.87,0-11.79,1.16,3.22,1.17,8.52,0,11.79Z"/>
      <path class="cls-1" d="M13.34,237.23c-1.26-3.33-.71-8.05-.69-11.79,1.17,3.26.84,8.15.69,11.79Z"/>
      <path class="cls-1" d="M301.9,462.65h-11.1c4.59-.65,6.27-1.07,11.1,0Z"/>
      <path class="cls-1" d="M13.34,213.65c-1.28-3.1-.69-7.57-.69-11.1,1.17,3.02.84,7.69.69,11.1Z"/>
      <path class="cls-1" d="M13.34,304.51c-1.15-2.81-1.17-8.14,0-11.1.04,3.69.04,7.41,0,11.1Z"/>
      <path class="cls-1" d="M12.65,327.4c0-3.52-.59-8,.69-11.1.14,3.41.48,8.08-.69,11.1Z"/>
      <path class="cls-1" d="M13.34,394.68c-1.16-2.57-1.17-7.69,0-10.4.04,3.46.04,6.95,0,10.4Z"/>
      <path class="cls-1" d="M13.34,100.59c-1.16-2.57-1.17-7.69,0-10.4.02,3.46.04,6.95,0,10.4Z"/>
      <path class="cls-1" d="M583.52,357.92c-1.61-2.15-3.27-4.92-3.47-7.63,1.95,3.2,2.19,4.53,3.47,7.63Z"/>
      <path class="cls-1" d="M13.34,575.71c-1.16-2.57-1.17-7.69,0-10.4.03,3.45.06,6.95,0,10.4Z"/>
      <path class="cls-1" d="M41.09,79.09c-.17-3.44.12-6.96,0-10.4,1.27,1.83,1.06,8.41,0,10.4Z"/>
      <path class="cls-1" d="M13.34,123.48c-1.16-2.57-1.17-7.69,0-10.4.04,3.45.05,6.95,0,10.4Z"/>
      <path class="cls-1" d="M30.68,63.14h-9.71c4.47-.87,5.25-.67,9.71,0Z"/>
      <path class="cls-1" d="M505.83,523.69c-3.23,0-6.48.01-9.71,0,2.47-1.18,7.39-1.16,9.71,0Z"/>
      <path class="cls-1" d="M13.34,416.87c-1.16-2.32-1.18-7.24,0-9.71.03,3.23.03,6.48,0,9.71Z"/>
      <path class="cls-1" d="M41.78,469.59c-2.98.14-6.03-.04-9.02,0,2.23-1.18,6.93-1.16,9.02,0Z"/>
      <path class="cls-1" d="M52.19,457.8c-.47.42-.89,1.86-1.72,1.91-.24.02-3.81-1.59-4.52-1.91,1.35-1.85,4.3,1.8,6.24,0Z"/>
      <path class="cls-1" d="M49.41,11.81c-1.65-1.22-3.85-2.74-4.16-4.86,2.41,2.17,2.44,2.39,4.16,4.86Z"/>
      <path class="cls-1" d="M106.99,434.21h-8.32c3.96-.37,4.33-.36,8.32,0Z"/>
      <path class="cls-1" d="M516.93,522.99c-2.07,1.28-5.7.68-8.32.69,1.97-1.17,5.83-.83,8.32-.69Z"/>
      <path class="cls-1" d="M264.44,465.43c-2.53.1-5.1-.03-7.63,0,1.76-1.18,6.01-1.15,7.63,0Z"/>
      <path class="cls-1" d="M.16,31.23c-.22-1.95-.22-5.68,0-7.63,1.18,1.76,1.15,6.01,0,7.63Z"/>
      <path class="cls-1" d="M313.69,462.65h-7.63c2.31-.52,5.49-1.67,7.63,0Z"/>
      <path class="cls-1" d="M495.43,523.69c-2.4-.01-5.8.58-7.63-.69,2.4,0,5.8-.58,7.63.69Z"/>
      <path class="cls-1" d="M539.82,523.69c-2.4-.32-5.75.81-7.63-.69,3.08-.07,5.03.42,7.63.69Z"/>
      <path class="cls-1" d="M66.75,142.21c-1.28-1.83-.67-5.23-.69-7.63,1.27,1.83.68,5.23.69,7.63Z"/>
      <path class="cls-1" d="M19.59,469.59c-2.3-.05-4.64.1-6.94,0,1.54-1.19,5.53-1.15,6.94,0Z"/>
      <path class="cls-1" d="M66.75,373.87c.02-2.18-.58-5.34.69-6.94-.01,2.18.57,5.34-.69,6.94Z"/>
      <path class="cls-1" d="M579.36,532.7c1.56.51,5.1.39,4.86,2.77-1.64-.83-3.56-1.45-4.86-2.77Z"/>
      <path class="cls-1" d="M12.65,79.78c.01-2.18-.57-5.34.69-6.94-.04,2.19.59,5.33-.69,6.94Z"/>
      <path class="cls-1" d="M591.84,418.26c-1.86-1.6-.24-4.19,0-5.55v5.55Z"/>
      <path class="cls-1" d="M591.84,387.74c-.29-1.56-1.24-3.39-.69-5.55.27,1.53,1.23,3.42.69,5.55Z"/>
      <path class="cls-1" d="M22.36,53.43c-2.08.41-3.32-.75-4.86-1.39,1.92-.63,3.76,1.1,4.86,1.39Z"/>
      <path class="cls-1" d="M16.81,56.2c-1.77.06-3.9-.23-5.55,0,1.06-1.16,4.46-1.17,5.55,0Z"/>
      <path class="cls-1" d="M392.07,135.96c-1.65-.1-2.71-1.44-3.47-2.77,1.7,1.21,1.78,1.11,3.47,2.77Z"/>
      <path class="cls-1" d="M52.19,457.8c.12-.12.15-1.23.67-1.75.7-.69,1.61-1.21,2.1-1.72.02,1.87-1.65,2.47-2.77,3.47Z"/>
      <path class="cls-1" d="M13.34,440.46c-1.15-.88-1.15-3.98,0-4.86,0,1.62,0,3.24,0,4.86Z"/>
      <path class="cls-1" d="M543.98,262.89c-.9-.9-2.08-3.33-.69-4.16.51,1.48.43,2.8.69,4.16Z"/>
      <path class="cls-1" d="M403.87,149.84c-1.51-.64-2.27-1.81-2.08-3.47,1.05,1.39,1.4,2.47,2.08,3.47Z"/>
      <path class="cls-1" d="M29.3,54.12c-1.35.11-3.57.17-4.86,0,.88-1.15,3.98-1.15,4.86,0Z"/>
      <path class="cls-1" d="M289.41,463.34c-1.44.25-3.33-.17-4.86,0,1.14-.22,3.44-1.87,4.86,0Z"/>
      <path class="cls-1" d="M52.19,78.4l-2.77-2.77c2.74,1.71,1.38,1.08,2.77,2.77Z"/>
      <path class="cls-1" d="M505.83,208.1c-2.08.59-2.98-.82-4.16-1.39,1.99.46,2.29.53,4.16,1.39Z"/>
      <path class="cls-1" d="M50.11,448.09c.84-1.05,1.41-2.22,2.77-2.77-.65,1.06-.38,2.81-2.77,2.77Z"/>
      <path class="cls-1" d="M56.35,452.94c-.02-1.94,1.09-2.41,2.08-3.47.02,1.95-1.09,2.42-2.08,3.47Z"/>
      <path class="cls-1" d="M593.93,452.94c-1.21-.95-.67-3.33-.69-4.86,1.25.97.62,3.32.69,4.86Z"/>
      <path class="cls-1" d="M610.57,552.82c-1-.86-2.25-1.4-2.77-2.77,1.09.66,2.8.39,2.77,2.77Z"/>
      <path class="cls-1" d="M9.18,468.89c-1.65-1.08-2.08-1.31-2.08-3.47l2.08,3.47Z"/>
      <path class="cls-1" d="M501.67,206.71c-1.23-.29-2.66.07-3.47-1.39,1.55.56,1.92.64,3.47,1.39Z"/>
      <path class="cls-1" d="M528.72,226.83c-1.81.42-1.71-1.36-2.08-2.77,1.07,1.2,1.24,1.55,2.08,2.77Z"/>
      <path class="cls-1" d="M537.74,243.47c-.29-.71-2.64-2.31-.69-3.47.44,1,.56,2.37.69,3.47Z"/>
      <path class="cls-1" d="M33.46,588.89c-1.39.01-2.78-.01-4.16,0,.66-1.11,3.46-1.14,4.16,0Z"/>
      <path class="cls-1" d="M557.16,311.45c-1.06-1.76-.88-1.5-1.39-3.47,1.19.75,1.41,2.16,1.39,3.47Z"/>
      <path class="cls-1" d="M564.1,324.62c-1.94.43-1.58-1.44-2.08-2.77.85,1.08,1.24,1.3,2.08,2.77Z"/>
      <path class="cls-1" d="M574.5,341.27c-1.74-.37-1.6-2.06-2.08-2.77,1.7.52,1.55,1.72,2.08,2.77Z"/>
      <path class="cls-1" d="M593.23,446c-1.16-.75-.68-2.85-.69-4.16,1.16.75.68,2.85.69,4.16Z"/>
      <path class="cls-1" d="M14.73,461.26c-1.39-.03-2.78.02-4.16,0,1.26-.45,2.92-1.68,4.16,0Z"/>
      <path class="cls-1" d="M319.24,462.65h-4.16c1.19-1.85,3.22-.18,4.16,0Z"/>
      <path class="cls-1" d="M238.78,464.73c-1.37-.08-2.79.12-4.16,0,1.23-1.88,3.34-.15,4.16,0Z"/>
      <path class="cls-1" d="M276.24,464.04c-.76,1.19-2.85.65-4.16.69.76-1.17,2.85-.67,4.16-.69Z"/>
      <path class="cls-1" d="M54.27,29.15v-4.16c.59,2.97.2,1.98,0,4.16Z"/>
      <path class="cls-1" d="M145.83,99.2c-1.29-.26-2.93-.47-4.16-.69l4.16.69Z"/>
      <path class="cls-1" d="M199.93,116.54c-1.4-.5-2.31-.93-3.47-1.39,1.38-.08,2.61.27,3.47,1.39Z"/>
      <path class="cls-1" d="M222.13,126.25c-1.5-.52-2.29-.93-3.47-1.39,1.31-.03,2.72.2,3.47,1.39Z"/>
      <path class="cls-1" d="M263.75,137.35c-1.29,1.79-3.1.29-4.16,0,1.39,0,2.78,0,4.16,0Z"/>
      <path class="cls-1" d="M13.34,531.32c-1.14-.7-1.11-3.5,0-4.16-.01,1.39.01,2.78,0,4.16Z"/>
      <path class="cls-1" d="M67.45,201.16c-.02-1.39.02-2.78,0-4.16,1.11.66,1.14,3.46,0,4.16Z"/>
      <path class="cls-1" d="M13.34,546.58c-1.14-.7-1.11-3.5,0-4.16.01,1.39-.02,2.78,0,4.16Z"/>
      <path class="cls-1" d="M41.78,204.63c-1.17-.75-.67-2.85-.69-4.16,1.17.76.67,2.85.69,4.16Z"/>
      <path class="cls-1" d="M430.92,185.9c-1.37-.05-2.16-.67-2.08-2.08.71.64,1.65,1.74,2.08,2.08Z"/>
      <path class="cls-1" d="M562.02,321.85c-.71-.9-1.4-1.4-1.39-2.77.41.86.73,1.02,1.39,2.77Z"/>
      <path class="cls-1" d="M92.42,434.91c-1.15.06-2.32-.04-3.47,0,.82-.24,2.41-1.78,3.47,0Z"/>
      <path class="cls-1" d="M117.39,434.91c-1.15-.03-2.31.04-3.47,0,1.06-1.78,2.66-.23,3.47,0Z"/>
      <path class="cls-1" d="M48.03,450.86c.76-1.03,1.74-1.62,2.08-2.08.04,1.39-.66,2.13-2.08,2.08Z"/>
      <path class="cls-1" d="M421.9,176.89c-1.42.05-2.12-.69-2.08-2.08.44.52,1.37,1.28,2.08,2.08Z"/>
      <path class="cls-1" d="M45.25,457.1c-.27-.13-.96.1-1.39,0-.26-.3,1.13-1.65,1.39-2.07l.54.33-.54,1.75Z"/>
      <path class="cls-1" d="M40.4,457.1c-.2.17-.26.78-.73,1.03-.81.44-1.46.2-2.04.36l2.77-1.39Z"/>
      <path class="cls-1" d="M21.67,458.49c-1.59-.16-2.53-.54-3.47-.69,1.11.04,2.88-.43,3.47.69Z"/>
      <path class="cls-1" d="M54.27,70.07c-1.41.09-2.02-.72-2.08-2.08.55.57,1.52,1.56,2.08,2.08Z"/>
      <path class="cls-1" d="M36.93,63.83c-1.15-.04-2.32.06-3.47,0,1.05-1.81,2.73-.19,3.47,0Z"/>
      <path class="cls-1" d="M20.28,63.83c-.85.25-2.46-.18-3.47,0,.89-.29,2.4-1.74,3.47,0Z"/>
      <path class="cls-1" d="M50.11,59.67l-2.08-2.08c.34.2,1.12-.04,1.73.68.38.45.2,1.14.35,1.4Z"/>
      <path class="cls-1" d="M45.25,47.18c-.67.59-.85,1.27-2.08,2.08-.06-1.39.68-2.1,2.08-2.08Z"/>
      <path class="cls-1" d="M9.88,47.18c-1.6-1.28-1.29-1.3-2.08-2.08l2.08,2.08Z"/>
      <path class="cls-1" d="M281.78,464.04c-1.09.12-2.33-.04-3.47,0,.46-1.09,3.01-1.09,3.47,0Z"/>
      <path class="cls-1" d="M9.88,6.95l-2.08,2.08c1.01-1.1.59-.84,2.08-2.08Z"/>
      <path class="cls-1" d="M392.07,481.38c-1.02-.46-2.05-1.08-2.77-1.39,1.21-.12,2.41.11,2.77,1.39Z"/>
      <path class="cls-1" d="M601.56,487.62c-1.12-.59-.65-2.36-.69-3.47.35,1.37.45,2.52.69,3.47Z"/>
      <path class="cls-1" d="M546.06,273.3c-1.12-.59-.65-2.36-.69-3.47.24,1.2.49,2.2.69,3.47Z"/>
      <path class="cls-1" d="M624.45,563.22c.11.49,1.25,1.52.69,2.77-.83.08-1.01-1.13-1.38-1.39l.69-1.39Z"/>
      <path class="cls-1" d="M16.81,588.89c-1.34-.09-2.45.48-3.47-.69,1.11.04,2.88-.43,3.47.69Z"/>
      <path class="cls-1" d="M333.81,464.04c-1.16,0-2.31,0-3.47,0,1.03-1.82,2.79-.16,3.47,0Z"/>
      <path class="cls-1" d="M346.99,423.81c-4.32-2.22-7.77-6.88-11.1-10.4,4.13,3.45,7.48,6.02,11.1,10.4Z"/>
      <path class="cls-1" d="M369.88,203.24c-3.03-2.49-5.87-5.26-8.32-8.32,4.28,3.44,4.93,4.65,8.32,8.32Z"/>
      <path class="cls-1" d="M403.87,474.44l-6.94-6.94c3.66,3.02,3.94,3.62,6.94,6.94Z"/>
      <path class="cls-1" d="M188.14,237.23c-2.34-.46-4.1-3.03-5.55-4.86,3.02,1.92,3.15,2.46,5.55,4.86Z"/>
      <path class="cls-1" d="M434.39,310.06c-.99-2.05-1.79-4.88-2.77-6.94,1.81,1.29,3.17,4.29,3.38,6.48l-.61.46Z"/>
      <path class="cls-1" d="M337.97,242.78c-1.58-1.64-4.52-3.01-4.86-5.55,1.72,1.63,4.42,3.01,4.86,5.55Z"/>
      <path class="cls-1" d="M550.23,333.64c-2.07-1.15-3.31-3.19-4.86-4.86,2.8.29,3.65,3.09,4.86,4.86Z"/>
      <path class="cls-1" d="M348.37,254.57c-2.37-.88-3.11-3.52-4.16-4.86,2.34.77,3.19,3.7,4.16,4.86Z"/>
      <path class="cls-1" d="M435.08,223.36c-.74-1.54-3.95-4.56-2.08-6.24.9,1.78,1.4,4.67,2.08,6.24Z"/>
      <path class="cls-1" d="M550.23,359.3c-2.71-.18-3.15-2.66-4.16-4.16,1.63,1.07,3.13,2.5,4.16,4.16Z"/>
      <path class="cls-1" d="M331.73,408.55c-1.73-1.04-2.99-2.56-4.16-4.16,2.72.15,3.16,2.72,4.16,4.16Z"/>
      <path class="cls-1" d="M484.33,237.92c-1.46-1.3-3.21-2.33-4.16-4.16,1.55,1.04,3.94,1.44,4.16,4.16Z"/>
      <path class="cls-1" d="M242.94,149.14c-2.02-.07-4.46-.96-5.55-2.77,2.21.09,3.91,1.99,5.55,2.77Z"/>
      <path class="cls-1" d="M374.04,207.41c-1.35-1.41-2.78-2.67-4.16-4.16,1.13.93,4.16,1.44,4.16,4.16Z"/>
      <path class="cls-1" d="M501.67,455.72c-2.73-.12-3.17-2.78-4.16-4.16,1.59,1.43,2.78,2.87,4.16,4.16Z"/>
      <path class="cls-1" d="M326.18,402.31c-1.49-1-3.28-2.26-3.47-4.16,1.7,1.84,2.01,2.17,3.47,4.16Z"/>
      <path class="cls-1" d="M238.08,390.52c-1.29-1.22-3.39-2.04-3.47-4.16,1.25,1.24,3.41,2.03,3.47,4.16Z"/>
      <path class="cls-1" d="M152.77,242.09c-.51.25-1.2.96-2.08,1.39-1.35.38-1.81.15-1.39-.69.89-.44,1.93-.91,2.77-1.39l.69.69Z"/>
      <path class="cls-1" d="M150.69,273.99c-1.75-.88-2.04-2.62-2.77-4.16,2.15.75,2.07,2.68,2.77,4.16Z"/>
      <path class="cls-1" d="M392.77,464.04c-1.27-1.06-2.72-1.88-3.47-3.47,1.19.82,3.44.88,3.47,3.47Z"/>
      <path class="cls-1" d="M387.22,459.18c-1.36-.98-2.66-1.95-3.47-3.47,1.31.83,3.39.9,3.47,3.47Z"/>
      <path class="cls-1" d="M507.22,461.26c-1.29-.83-3.4-.89-3.47-3.47,1.12,1.08,2.78,1.82,3.47,3.47Z"/>
      <path class="cls-1" d="M401.09,313.53c-2.58-.07-2.64-2.18-3.47-3.47,1.53.8,2.48,2.12,3.47,3.47Z"/>
      <path class="cls-1" d="M424.68,340.58c-2.52-.15-2.63-1.97-3.47-3.47,1.54.8,2.46,2.13,3.47,3.47Z"/>
      <path class="cls-1" d="M447.57,337.8c-.62-1.43-1.28-3.29-1.39-4.86.73,1.23,3.22,3.46,1.39,4.86Z"/>
      <path class="cls-1" d="M483.64,304.51c-.53-.38-1.5-.23-2.49-1.34-.79-.89-.7-1.7-.98-2.13l3.47,3.47Z"/>
      <path class="cls-1" d="M583.52,512.59c-1.11-.81-3.49-.88-3.47-3.47,1.29,1.05,2.71,1.89,3.47,3.47Z"/>
      <path class="cls-1" d="M145.14,172.73c-1.74-.22-4.35.69-5.55-.69,2.25.2,3.46.33,5.55.69Z"/>
      <path class="cls-1" d="M250.57,404.39c-1.32-.78-2.69-1.8-2.77-3.47,1.16,1.25,2.21,2.87,2.77,3.47Z"/>
      <path class="cls-1" d="M378.2,212.26c-1.33-.75-2.68-1.81-2.77-3.47,1.59,1.63,1.7,2.1,2.77,3.47Z"/>
      <path class="cls-1" d="M228.37,379.42c-1.2-1.34-1.95-2.52-2.77-3.47,1.33.75,2.68,1.81,2.77,3.47Z"/>
      <path class="cls-1" d="M322.71,226.13c-1.32-.78-2.69-1.8-2.77-3.47,1.19,1.29,2.15,2.8,2.77,3.47Z"/>
      <path class="cls-1" d="M331.73,235.84c-1.1-1.01-2.77-1.52-2.77-3.47,1.12,1.01,2.76,1.53,2.77,3.47Z"/>
      <path class="cls-1" d="M268.61,177.58c-1.14-.71-2.82-.77-3.47-2.77,1.02.69,2.89.78,3.47,2.77Z"/>
      <path class="cls-1" d="M590.46,518.14c-2,0-2.46-1.81-3.47-2.77,1.98-.05,2.47,1.79,3.47,2.77Z"/>
      <path class="cls-1" d="M88.95,118.62c-1.33-.75-2.68-1.81-2.77-3.47,1.21,1.46,1.55,1.64,2.77,3.47Z"/>
      <path class="cls-1" d="M99.36,132.5c-1.33-.75-2.68-1.81-2.77-3.47,1.18,1.44,1.55,1.65,2.77,3.47Z"/>
      <path class="cls-1" d="M298.43,201.86c-.91-.63-2.87-.37-2.77-2.77,1,.86,2.24,1.4,2.77,2.77Z"/>
      <path class="cls-1" d="M130.57,237.23c-.21-.27-.9-.46-1.31-1.11-.52-.83-.47-1.67-.77-2.35,1.7.62,1.57,2.21,2.08,3.47Z"/>
      <path class="cls-1" d="M414.27,267.75c2.27-.46,1.62,2.2,2.08,3.47-1.06-.93-1.45-2.27-2.08-3.47Z"/>
      <path class="cls-1" d="M287.33,192.15c-.81-.62-2.93-.39-2.77-2.77,1.19.69,2.14,1.54,2.77,2.77Z"/>
      <path class="cls-1" d="M388.61,299.65c-2.35-.03-2.11-1.53-2.77-2.77,1.41.53,1.92,1.82,2.77,2.77Z"/>
      <path class="cls-1" d="M247.1,289.94l-2.77-2.77c.28.22,1.33.09,2.13.99.54.6.46,1.56.64,1.78Z"/>
      <path class="cls-1" d="M489.88,243.47l-2.77-2.77c1.74,1.38,1.13-.07,2.77,2.77Z"/>
      <path class="cls-1" d="M208.26,255.26c-1.16-.73-2.16-1.51-2.77-2.77,1.1.66,2.79.39,2.77,2.77Z"/>
      <path class="cls-1" d="M308.84,211.57c-.29-.19-1.13-.08-1.78-.64-.9-.76-.74-1.82-.99-2.14l2.77,2.77Z"/>
      <path class="cls-1" d="M197.85,246.25c-1.1-.79-2.2-1.46-2.77-2.77,1.03.65,2.82.37,2.77,2.77Z"/>
      <path class="cls-1" d="M202.71,250.41c-1-.86-2.25-1.4-2.77-2.77,1,.64,2.83.37,2.77,2.77Z"/>
      <path class="cls-1" d="M497.51,451.55c-1.53-1.37-1.05-.43-2.77-2.77,1.31.58,1.98,1.67,2.77,2.77Z"/>
      <path class="cls-1" d="M448.95,375.26c-1.51-.64-2.27-1.81-2.08-3.47.79,1.22,1.4,2.38,2.08,3.47Z"/>
      <path class="cls-1" d="M394.16,305.9c-1.75-1.45-1.05-.18-2.77-2.77l2.77,2.77Z"/>
      <path class="cls-1" d="M364.33,439.76c-1.05-.84-2.23-1.43-2.77-2.77,1.1.66,2.79.39,2.77,2.77Z"/>
      <path class="cls-1" d="M601.56,525.08c-.43-.9-1.86-1.74-1.39-3.47.6.98,1.59,1.96,2.06,3.13l-.68.34Z"/>
      <path class="cls-1" d="M490.57,310.75c-1.1-.66-2.79-.39-2.77-2.77.92.85,2.26,1.36,2.77,2.77Z"/>
      <path class="cls-1" d="M201.32,233.76c-.91-.63-2.87-.37-2.77-2.77,1.09.81,2.2,1.45,2.77,2.77Z"/>
      <path class="cls-1" d="M127.1,229.6c-1.97.44-1.55-1.47-2.08-2.77,1.13.52,1.7,1.67,2.08,2.77Z"/>
      <path class="cls-1" d="M443.4,241.39c-.77-1.11-1.67-1.71-1.39-3.47.65,1.07,1.73,1.71,1.39,3.47Z"/>
      <path class="cls-1" d="M358.09,265.67c-.7-.76-2.16-1.03-2.08-2.77.79.78,2.2,1.02,2.08,2.77Z"/>
      <path class="cls-1" d="M383.06,294.11c-1.03-.81-2.01-1.09-2.08-2.77.8.78,2.19,1.02,2.08,2.77Z"/>
      <path class="cls-1" d="M166.64,299.65c-1.72-.42-1.56-1.89-2.08-2.77,1.71.45,1.55,1.82,2.08,2.77Z"/>
      <path class="cls-1" d="M437.85,316.3c-1.13-.85-1.46-2.09-1.39-3.47.86,1.59.94,2.55,1.39,3.47Z"/>
      <path class="cls-1" d="M530.11,340.58c-1.79-1.01-1.59-1.16-2.77-2.08,1.37.05,2.25.88,2.77,2.08Z"/>
      <path class="cls-1" d="M209.65,357.22c-.7-.76-2.17-1.03-2.08-2.77,1.08,1.24,1.32,1.79,2.08,2.77Z"/>
      <path class="cls-1" d="M552.31,362.77c-1.73-.5-1.56-1.78-2.08-2.77,1.74.38,1.6,2.03,2.08,2.77Z"/>
      <path class="cls-1" d="M216.58,365.55c-1.17-1.27-1.44-2.01-2.08-2.77,1.2.53,2.03,1.4,2.08,2.77Z"/>
      <path class="cls-1" d="M220.05,369.71c-.76-.78-2.21-1.03-2.08-2.77.86.8,2.17,1.04,2.08,2.77Z"/>
      <path class="cls-1" d="M472.54,378.03c-1.2-.53-2.03-1.4-2.08-2.77.62.83,1.47,1.99,2.08,2.77Z"/>
      <path class="cls-1" d="M314.39,387.74c-1.2-.53-2.03-1.4-2.08-2.77,1.02,1.24,1.18,1.46,2.08,2.77Z"/>
      <path class="cls-1" d="M242.25,395.37c-.94-.8-2.13-1.06-2.08-2.77.85.8,2.17,1.04,2.08,2.77Z"/>
      <path class="cls-1" d="M272.77,425.2c-1.74.12-1.98-1.28-2.77-2.08,1.74-.1,1.98,1.24,2.77,2.08Z"/>
      <path class="cls-1" d="M546.76,432.13c-1.37-.05-2.25-.88-2.77-2.08,1.35.92,1.43.89,2.77,2.08Z"/>
      <path class="cls-1" d="M282.48,432.83c-1.33-.14-2.28-.84-2.77-2.08.83.63,1.93,1.46,2.77,2.08Z"/>
      <path class="cls-1" d="M356.7,432.83c-.97-.77-1.29-.46-2.77-2.08,1.75-.18,2.03,1.42,2.77,2.08Z"/>
      <path class="cls-1" d="M369.88,443.92c-1.37-.05-2.25-.88-2.77-2.08.78.64,1.59,1.05,2.77,2.08Z"/>
      <path class="cls-1" d="M306.76,446.7c-1.1,1.7-2.55.02-3.47-.69,1.1.13,2.46.26,3.47.69Z"/>
      <path class="cls-1" d="M74.38,102.67c-1.05-.66-2.13-2.74-.69-3.47.14,1.17.47,2.31.69,3.47Z"/>
      <path class="cls-1" d="M390.69,475.14c-1.03-.43-2.45-.99-3.47-1.39,1.31-.03,2.72.2,3.47,1.39Z"/>
      <path class="cls-1" d="M405.95,482.77c-1.32-.52-3.21-.12-2.77-2.08,1.07.52,2.26.83,2.77,2.08Z"/>
      <path class="cls-1" d="M591.84,504.96c-.42-1.05-.57-2.34-.69-3.47.6.92,2.46,2.34.69,3.47Z"/>
      <path class="cls-1" d="M88.95,142.21c-1.19-.75-1.41-2.16-1.39-3.47.42,1.08.95,2.33,1.39,3.47Z"/>
      <path class="cls-1" d="M110.45,147.76c-1.2-.53-2.03-1.4-2.08-2.77.64.87,1.43,1.89,2.08,2.77Z"/>
      <path class="cls-1" d="M118.08,158.16c-1.2-.53-2.03-1.4-2.08-2.77,1.2,1.36,1.12,1.29,2.08,2.77Z"/>
      <path class="cls-1" d="M344.91,182.44c1.27.55,3.22.08,2.77,2.08-.96-.61-2.29-.74-2.77-2.08Z"/>
      <path class="cls-1" d="M418.43,188.68c-1.95.44-1.56-1.44-2.08-2.77,1.31.49,1.48,1.76,2.08,2.77Z"/>
      <path class="cls-1" d="M238.08,190.76c-.52,1.71-1.73,1.55-2.77,2.08.4-1.74,1.98-1.59,2.77-2.08Z"/>
      <path class="cls-1" d="M603.64,531.32s.85.03.69.69c-2.71.46-2.08-.74-2.77-2.07l2.08,1.39Z"/>
      <path class="cls-1" d="M436.47,204.63c-1.76.16-2.03-1.4-2.77-2.08,1.76-.13,2.04,1.44,2.77,2.08Z"/>
      <path class="cls-1" d="M292.88,197c-2.41-1.42-1.72-1.77-2.08-2.08l2.08,2.08Z"/>
      <path class="cls-1" d="M495.43,314.91c-2.57-1.32-1.19-.95-2.08-2.08l2.08,2.08Z"/>
      <path class="cls-1" d="M317.16,391.21l-2.08-2.08c.99.86.64-.4,2.08,2.08Z"/>
      <path class="cls-1" d="M215.89,261.51l-2.08-2.08c2.05,1.4.95.65,2.08,2.08Z"/>
      <path class="cls-1" d="M283.87,189.37c-2.7-1.25-1.79-1.85-2.08-2.08l2.08,2.08Z"/>
      <path class="cls-1" d="M421.21,188.68l-2.08-2.08c.64.64.62-.43,2.08,2.08Z"/>
      <path class="cls-1" d="M577.97,406.47c-1.12-.59-.65-2.36-.69-3.47.08.78.58,1.87.69,3.47Z"/>
      <path class="cls-1" d="M243.63,186.6c-1.13-.1-2.35.15-3.47,0,.57-1.11,3.43-1.08,3.47,0Z"/>
      <path class="cls-1" d="M224.21,183.82c-1.11-.04-2.88.43-3.47-.69,1.25.2,2.6.57,3.47.69Z"/>
      <path class="cls-1" d="M417.74,184.52c-.37-.49-1.63-.71-1.39-2.08.78-.02,1.5,1.3,2.07,1.74l-.68.34Z"/>
      <path class="cls-1" d="M405.25,318.38c-.89-.88-.91-.69-2.08-2.08l2.08,2.08Z"/>
      <path class="cls-1" d="M541.9,428.66l-2.08-2.08c2.28,1.48,1.35,1.34,2.08,2.08Z"/>
      <path class="cls-1" d="M353.23,430.05l-2.08-2.08c2.39,1.38,1.11.9,2.08,2.08Z"/>
      <path class="cls-1" d="M180.51,319.08c-.1-.13-.93-.44-2.08-2.08l2.08,2.08Z"/>
      <path class="cls-1" d="M257.51,301.74l-2.08-2.08c.73.64,1.05-.71,2.08,2.08Z"/>
      <path class="cls-1" d="M358.78,434.91c-1.11-.23-1.56-1.67-2.08-2.08,1.25,1.11.79.46,2.08,2.08Z"/>
      <path class="cls-1" d="M218.66,183.13c-1.11-.04-2.88.43-3.47-.69,1.39.17,2.79.61,3.47.69Z"/>
      <path class="cls-1" d="M551.61,436.99l-2.08-2.08c.16.14,1.09-.07,1.73.68.37.44.22,1.25.35,1.4Z"/>
      <path class="cls-1" d="M213.81,182.44c-1.13-.13-2.34.13-3.47,0,.46-1.09,3.01-1.09,3.47,0Z"/>
      <path class="cls-1" d="M204.79,181.05c-1.15.07-2.59.26-3.47-.69,1.49.23,2.06.35,3.47.69Z"/>
      <path class="cls-1" d="M555.77,441.15l-2.08-2.08c1.31,1.13.77.42,2.08,2.08Z"/>
      <path class="cls-1" d="M543.98,327.4l-2.08-2.08c1.08,1,.9.72,2.08,2.08Z"/>
      <path class="cls-1" d="M414.96,329.48c-.19-.15-1.09.07-1.73-.68-.38-.44-.21-1.21-.35-1.4l2.08,2.08Z"/>
      <path class="cls-1" d="M201.32,180.35c-2.69-.41-.83-1.05-1.39-2.77.81.6.93,2.28,1.39,2.77Z"/>
      <path class="cls-1" d="M211.73,258.04l-2.08-2.08c2.46,1.47,1.39,1.38,2.08,2.08Z"/>
      <path class="cls-1" d="M375.43,448.78l-2.08-2.08c2.41,1.39,1.11.84,2.08,2.08Z"/>
      <path class="cls-1" d="M168.72,176.19c-1.11-.04-2.88.43-3.47-.69,1.56.23,1.92.27,3.47.69Z"/>
      <path class="cls-1" d="M171.49,176.89c-.21-1.4.99-2.05,1.39-2.77.08,1.18-.1,2.46-1.39,2.77Z"/>
      <path class="cls-1" d="M158.32,174.81c-1.11-.04-2.88.43-3.47-.69,1.33.19,2.6.58,3.47.69Z"/>
      <path class="cls-1" d="M236,151.22c-2.69-1.35-1.41-1.37-2.08-2.08l2.08,2.08Z"/>
      <path class="cls-1" d="M91.73,148.45c-.15-.37-.85-1.43-1.39-2.77l1.39,2.77Z"/>
      <path class="cls-1" d="M227.68,144.29c-.59-.44-2.36-.03-2.08-2.08.84.61,1.7.99,2.08,2.08Z"/>
      <path class="cls-1" d="M82.71,110.3l-2.08-2.08c.44.48.65-.43,2.08,2.08Z"/>
      <path class="cls-1" d="M419.82,335.03c-1.24-.97-.69.33-2.08-2.08l2.08,2.08Z"/>
      <path class="cls-1" d="M447.57,250.41c-.33-.78-.89-1.5-1.39-2.77,1.27.36,1.51,1.56,1.39,2.77Z"/>
      <path class="cls-1" d="M477.39,297.57c-1.4-1.03-.78.31-2.08-2.08l2.08,2.08Z"/>
      <path class="cls-1" d="M526.64,337.8c-1.14-.93-1.9-1.93-2.08-2.08l2.08,2.08Z"/>
      <path class="cls-1" d="M195.08,338.5c-.17-.22-.76.46-2.08-2.08l2.08,2.08Z"/>
      <path class="cls-1" d="M343.52,248.33c-.14-.16-1.3-1.19-2.08-2.08l2.08,2.08Z"/>
      <path class="cls-1" d="M493.35,247.63l-2.08-2.08c1.24.97.7-.34,2.08,2.08Z"/>
      <path class="cls-1" d="M422.59,285.09c-.34-.82-.39-1.91-.69-2.77.26.41,1.96.76,1.37,2.39l-.68.38Z"/>
      <path class="cls-1" d="M555.77,340.58l-2.08-2.08c.29.35.84.42,2.08,2.08Z"/>
      <path class="cls-1" d="M521.09,472.36c-2.08-1.31-1.95-1.98-2.08-2.08l2.08,2.08Z"/>
      <path class="cls-1" d="M366.41,274.68c-1.46-1.08-.76.23-2.08-2.08l2.08,2.08Z"/>
      <path class="cls-1" d="M217.28,246.25c-2.63-1.37-1.64-1.69-2.08-2.08l2.08,2.08Z"/>
      <path class="cls-1" d="M534.27,344.05c-2.59-1.31-1.21-.97-2.08-2.08l2.08,2.08Z"/>
      <path class="cls-1" d="M582.83,484.85c2.45-.5,1.28,1.68,1.39,2.08-.77-.51-1.03-1.3-1.39-2.08Z"/>
      <path class="cls-1" d="M202.71,348.21c-.43-.47-.73.57-2.08-2.08l2.08,2.08Z"/>
      <path class="cls-1" d="M430.92,348.9c-1.09-.88-.74.49-2.08-2.08l2.08,2.08Z"/>
      <path class="cls-1" d="M454.5,350.29l-1.39-2.77c.42.79.97,2.01,1.39,2.77Z"/>
      <path class="cls-1" d="M191.61,240.7l-2.08-2.08c.77.78.85.56,2.08,2.08Z"/>
      <path class="cls-1" d="M229.76,273.3l-2.08-2.08c2.37,1.38,1.09.86,2.08,2.08Z"/>
      <path class="cls-1" d="M131.96,240c-.48-.98-.76-1.24-1.39-2.77.69.9,1.43,1.39,1.39,2.77Z"/>
      <path class="cls-1" d="M211.73,359.3c-.21-.23-1.37-1.31-2.08-2.08.39.5,1.87.98,2.08,2.08Z"/>
      <path class="cls-1" d="M478.78,233.07l-2.08-2.08c1.82,1.36.95.76,2.08,2.08Z"/>
      <path class="cls-1" d="M254.73,298.27l-2.08-2.08c1.27,1.05.67-.11,2.08,2.08Z"/>
      <path class="cls-1" d="M476.01,230.99l-2.08-2.08c2.66,1.38,1.39,1.34,2.08,2.08Z"/>
      <path class="cls-1" d="M220.74,265.67l-2.08-2.08c2.38,1.4,1.09.83,2.08,2.08Z"/>
      <path class="cls-1" d="M436.47,226.13c-.42-.89-.94-1.84-1.39-2.77.11.25,2.08,1.08,1.39,2.77Z"/>
      <path class="cls-1" d="M375.43,285.09c-1.12-1.02-.83-.56-2.08-2.08l2.08,2.08Z"/>
      <path class="cls-1" d="M446.87,213.65l-2.08-2.08c2.32,1.33,1.94,1.99,2.08,2.08Z"/>
      <path class="cls-1" d="M439.94,208.1l-2.08-2.08c.55.54,1.63,1.66,2.08,2.08Z"/>
      <path class="cls-1" d="M131.96,174.11c4.44,3.52,8.39,7.23,12.49,11.1l2.77,2.08c3.28,3.5,6.92,5.62,10.4,9.02l2.77,2.08c.81.81,3.33,2.97,3.48,3.83.06.35-1.36.2-1.41.74-.45,5.69-7.78,20.66-10.54,27.57-1.46,3.65-3,7.27-3.44,11.23-.06.54-1.41-.14-1.27,1.71,1.64-.15,1.81.09.69,1.39-.76.37-3.06,2.79-2.76.37,2.79-9.57,5.03-19.4,8.31-28.81.75-1.67.99-3.29.69-4.86.26-1.32,1.36-4.66,1.01-5.59-4.22-4.28-7.67-9.18-11.41-13.84-.38-1.03-1.07-1.68-2.08-2.08-.11-.14.11-.55,0-.69-.36-1.05-1.07-1.67-2.08-2.08-3.31-4.22-5.97-8.46-9.02-12.48-.79-1.32.22-1.08,1.39-.69Z"/>
      <path class="cls-1" d="M131.96,174.11l-1.39.69c-.67-.89-1.44-1.92-2.08-2.77.13.15,2.42,1.25,3.47,2.08Z"/>
      <path class="cls-1" d="M153.46,216.42c.03-1.63.38-3.27.69-4.86,1.9,1.45-.25,3.59-.69,4.86Z"/>
      <path class="cls-1" d="M150.69,243.47c-.92.45-1.84.93-2.77,1.39-.14-.43-.66-1.02-.69-1.39.77-.04,1.41-.36,2.08-.69l1.39.69Z"/>
      <path class="cls-1" d="M143.75,192.15c-.43-.53-1.3-1.1-2.08-2.08,1.4-.07,2.06.7,2.08,2.08Z"/>
      <path class="cls-1" d="M141.67,189.37c-.4-.51-1.32-1.11-2.08-2.08,1.42-.05,2.12.7,2.08,2.08Z"/>
      <path class="cls-1" d="M147.22,187.29c-1.76.15-2.02-1.37-2.77-2.08,1.74-.04,1.97,1.22,2.77,2.08Z"/>
      <path class="cls-1" d="M160.4,198.39c-1.76.13-2.01-1.33-2.77-2.08,1.76-.07,1.99,1.3,2.77,2.08Z"/>
    </g>
  </g>
</svg>